<?xml version="1.0" encoding="utf-8"?>
<!-- Generator: Adobe Illustrator 25.4.1, SVG Export Plug-In . SVG Version: 6.00 Build 0)  -->
<svg version="1.1" id="Calque_1" xmlns="http://www.w3.org/2000/svg" xmlns:xlink="http://www.w3.org/1999/xlink" x="0px" y="0px"
	 viewBox="0 0 283.46 113.39" style="enable-background:new 0 0 283.46 113.39;" xml:space="preserve">
<style type="text/css">
	.st0{fill:#93358D;}
	.st1{fill:#FFFFFF;}
</style>
<g>
	<path class="st0" d="M93.03,40.13l-4.38,2.72c-3.78-5.02-8.94-7.53-15.47-7.53c-5.22,0-9.56,1.68-13.01,5.04s-5.18,7.44-5.18,12.25
		c0,3.12,0.79,6.06,2.38,8.82c1.59,2.76,3.77,4.9,6.54,6.42s5.87,2.28,9.31,2.28c6.3,0,11.44-2.51,15.43-7.53l4.38,2.88
		c-2.05,3.09-4.8,5.48-8.26,7.18c-3.46,1.7-7.39,2.55-11.81,2.55c-6.78,0-12.4-2.15-16.87-6.46c-4.47-4.31-6.7-9.55-6.7-15.73
		c0-4.15,1.04-8.01,3.13-11.57c2.09-3.56,4.96-6.34,8.61-8.34c3.65-2,7.74-3,12.26-3c2.84,0,5.58,0.43,8.22,1.3
		c2.64,0.87,4.88,2,6.72,3.39C90.18,36.21,91.74,37.98,93.03,40.13z"/>
	<path class="st0" d="M102.81,14.67h5.52v59.44h-5.52V14.67z"/>
	<path class="st0" d="M162.53,31.23v42.89h-5.44v-7.37c-2.31,2.81-4.91,4.93-7.79,6.35s-6.02,2.13-9.44,2.13
		c-6.07,0-11.25-2.2-15.55-6.6c-4.3-4.4-6.44-9.76-6.44-16.06c0-6.18,2.17-11.46,6.5-15.85c4.34-4.39,9.55-6.58,15.65-6.58
		c3.52,0,6.71,0.75,9.56,2.25c2.85,1.5,5.35,3.74,7.51,6.74v-7.88H162.53z M140.47,35.44c-3.07,0-5.91,0.75-8.5,2.26
		c-2.6,1.51-4.67,3.63-6.2,6.36c-1.54,2.73-2.3,5.62-2.3,8.66c0,3.02,0.77,5.91,2.32,8.66c1.55,2.76,3.63,4.9,6.24,6.44
		c2.61,1.54,5.41,2.3,8.41,2.3c3.02,0,5.88-0.76,8.58-2.28c2.7-1.52,4.78-3.58,6.24-6.18c1.46-2.6,2.19-5.53,2.19-8.78
		c0-4.96-1.63-9.11-4.9-12.44C149.27,37.11,145.25,35.44,140.47,35.44z"/>
	<path class="st0" d="M172.85,31.23h5.64v6.27c1.68-2.47,3.46-4.32,5.32-5.54c1.87-1.22,3.81-1.83,5.83-1.83
		c1.52,0,3.15,0.49,4.89,1.46l-2.88,4.65c-1.16-0.5-2.13-0.75-2.92-0.75c-1.84,0-3.61,0.76-5.32,2.27s-3.01,3.86-3.9,7.04
		c-0.68,2.44-1.02,7.38-1.02,14.82v14.51h-5.64V31.23z"/>
	<path class="st0" d="M199.19,14.67h5.52v33.86l19.88-17.31h8.1l-23.57,20.46l24.95,22.43h-7.77L204.7,54.8v19.31h-5.52V14.67z"/>
</g>
<rect x="113.01" y="14.67" class="st0" width="81.5" height="12.55"/>
<g>
	<path class="st1" d="M125.43,16.08h2.79l3.65,5.4v-5.4h2.82v9.75h-2.82l-3.63-5.35v5.35h-2.81V16.08z"/>
	<path class="st1" d="M144.79,16.08h8.02v2.08h-5.02v1.55h4.66v1.99h-4.66v1.92h5.17v2.21h-8.16V16.08z"/>
	<path class="st1" d="M161.68,16.08h2.84l1.02,5.46l1.5-5.46h2.83l1.5,5.45l1.02-5.45h2.83l-2.13,9.75h-2.93l-1.7-6.14l-1.69,6.14
		h-2.93L161.68,16.08z"/>
</g>
<g>
	<path d="M51.28,83.24l-0.69,5.91h1.93l-0.12,0.99h-1.94h-0.99l0.81-6.9H51.28z"/>
	<path d="M57.22,89.15c-0.21,0.36-0.49,0.64-0.77,0.82c-0.24,0.14-0.61,0.31-1.16,0.31c-0.51,0-0.95-0.14-1.33-0.55
		c-0.32-0.34-0.56-0.87-0.56-1.55c0-0.75,0.27-1.4,0.72-1.86c0.4-0.41,0.89-0.64,1.51-0.64c0.38,0,0.86,0.08,1.25,0.51
		c0.31,0.34,0.51,0.89,0.51,1.52c0,0.13-0.01,0.31-0.05,0.51h-2.96c0,0.31,0.11,0.66,0.3,0.88c0.13,0.14,0.35,0.28,0.68,0.28
		c0.23,0,0.47-0.07,0.66-0.2c0.17-0.11,0.33-0.31,0.43-0.5L57.22,89.15z M56.46,87.38c-0.03-0.22-0.13-0.47-0.25-0.6
		c-0.14-0.16-0.36-0.24-0.6-0.24c-0.25,0-0.49,0.08-0.7,0.26c-0.17,0.14-0.3,0.37-0.38,0.58H56.46z"/>
	<path d="M61.56,92.51h-0.96l0.79-6.72h0.96l-0.06,0.48c0.14-0.2,0.29-0.32,0.49-0.41c0.25-0.12,0.48-0.18,0.74-0.18
		c0.52,0,1.01,0.23,1.32,0.56s0.52,0.85,0.52,1.48c0,0.76-0.29,1.49-0.7,1.95c-0.35,0.39-0.8,0.63-1.38,0.63
		c-0.34,0-0.67-0.07-0.93-0.24c-0.18-0.11-0.33-0.27-0.45-0.41L61.56,92.51z M62.46,86.9c-0.29,0.29-0.45,0.78-0.45,1.26
		c0,0.25,0.04,0.6,0.28,0.86c0.18,0.2,0.45,0.34,0.79,0.34c0.34,0,0.6-0.12,0.82-0.35c0.27-0.28,0.47-0.75,0.47-1.22
		c0-0.36-0.12-0.67-0.29-0.88c-0.21-0.24-0.46-0.33-0.78-0.33C62.98,86.58,62.72,86.64,62.46,86.9z"/>
	<path d="M69.86,85.78h0.96l-0.51,4.36h-0.96l0.05-0.46c-0.14,0.16-0.34,0.34-0.55,0.43c-0.21,0.09-0.49,0.15-0.76,0.15
		c-0.61,0-0.97-0.27-1.18-0.48c-0.32-0.33-0.57-0.91-0.57-1.57s0.22-1.42,0.72-1.95c0.42-0.44,0.93-0.61,1.51-0.61
		c0.27,0,0.52,0.05,0.76,0.19c0.17,0.09,0.33,0.24,0.47,0.43L69.86,85.78z M67.8,86.92c-0.27,0.27-0.46,0.73-0.46,1.22
		c0,0.38,0.14,0.7,0.32,0.91c0.18,0.2,0.4,0.31,0.7,0.31c0.43,0,0.73-0.2,0.9-0.38c0.28-0.3,0.42-0.77,0.42-1.19
		c0-0.36-0.12-0.7-0.32-0.92c-0.15-0.16-0.38-0.29-0.74-0.29C68.23,86.58,67.96,86.76,67.8,86.92z"/>
	<path d="M72.24,85.78h0.96l-0.05,0.39c0.05-0.06,0.21-0.25,0.44-0.37c0.22-0.11,0.43-0.13,0.63-0.13c0.2,0,0.43,0.03,0.71,0.21
		l-0.47,0.92c-0.15-0.1-0.31-0.16-0.51-0.16c-0.29,0-0.5,0.11-0.64,0.26c-0.25,0.27-0.32,0.77-0.35,0.98l-0.27,2.26h-0.96
		L72.24,85.78z"/>
	<path d="M76.79,86.71l-0.4,3.42h-0.96l0.4-3.42h-0.4l0.11-0.93h0.4l0.19-1.59h0.96l-0.19,1.59h0.74l-0.11,0.93H76.79z"/>
	<path d="M81.83,89.15c-0.21,0.36-0.49,0.64-0.77,0.82c-0.24,0.14-0.61,0.31-1.16,0.31c-0.51,0-0.95-0.14-1.33-0.55
		c-0.32-0.34-0.56-0.87-0.56-1.55c0-0.75,0.27-1.4,0.72-1.86c0.4-0.41,0.89-0.64,1.51-0.64c0.38,0,0.86,0.08,1.25,0.51
		c0.31,0.34,0.51,0.89,0.51,1.52c0,0.13-0.01,0.31-0.05,0.51H79c0,0.31,0.11,0.66,0.3,0.88c0.13,0.14,0.35,0.28,0.68,0.28
		c0.23,0,0.47-0.07,0.66-0.2c0.17-0.11,0.33-0.31,0.43-0.5L81.83,89.15z M81.07,87.38c-0.03-0.22-0.13-0.47-0.25-0.6
		c-0.14-0.16-0.36-0.24-0.6-0.24c-0.25,0-0.49,0.08-0.7,0.26c-0.17,0.14-0.3,0.37-0.38,0.58H81.07z"/>
	<path d="M83.49,85.78h0.96l-0.05,0.39c0.13-0.17,0.26-0.26,0.41-0.34c0.25-0.12,0.46-0.17,0.71-0.17c0.5,0,0.81,0.19,0.98,0.37
		c0.22,0.23,0.37,0.58,0.37,1.03c0,0.17-0.02,0.35-0.09,0.92l-0.26,2.14h-0.96l0.27-2.25c0.05-0.38,0.05-0.54,0.05-0.58
		c0-0.18-0.03-0.4-0.19-0.56c-0.13-0.12-0.31-0.18-0.49-0.18c-0.34,0-0.54,0.16-0.62,0.24c-0.26,0.26-0.34,0.7-0.4,1.22l-0.25,2.1
		h-0.96L83.49,85.78z"/>
	<path d="M91.52,85.78h0.96l-0.51,4.36H91l0.05-0.46c-0.14,0.16-0.34,0.34-0.55,0.43c-0.21,0.09-0.49,0.15-0.76,0.15
		c-0.61,0-0.97-0.27-1.18-0.48C88.24,89.47,88,88.89,88,88.23s0.22-1.42,0.72-1.95c0.42-0.44,0.93-0.61,1.51-0.61
		c0.27,0,0.52,0.05,0.76,0.19c0.17,0.09,0.33,0.24,0.47,0.43L91.52,85.78z M89.45,86.92c-0.27,0.27-0.46,0.73-0.46,1.22
		c0,0.38,0.14,0.7,0.32,0.91c0.18,0.2,0.4,0.31,0.7,0.31c0.43,0,0.73-0.2,0.9-0.38c0.28-0.3,0.42-0.77,0.42-1.19
		c0-0.36-0.12-0.7-0.32-0.92c-0.15-0.16-0.38-0.29-0.74-0.29C89.88,86.58,89.62,86.76,89.45,86.92z"/>
	<path d="M94.86,85.78l-0.51,4.36h-0.96l0.51-4.36H94.86z M94.17,83.55c0.12-0.12,0.29-0.22,0.5-0.22c0.17,0,0.3,0.06,0.39,0.16
		s0.16,0.23,0.16,0.39c0,0.17-0.07,0.38-0.2,0.53c-0.12,0.13-0.31,0.23-0.52,0.23c-0.19,0-0.3-0.07-0.38-0.16
		c-0.09-0.08-0.16-0.23-0.16-0.39C93.96,83.89,94.03,83.69,94.17,83.55z"/>
	<path d="M96.3,85.78h0.96l-0.05,0.39c0.05-0.06,0.21-0.25,0.44-0.37c0.22-0.11,0.43-0.13,0.63-0.13c0.2,0,0.43,0.03,0.71,0.21
		l-0.47,0.92c-0.15-0.1-0.31-0.16-0.51-0.16c-0.29,0-0.5,0.11-0.64,0.26c-0.25,0.27-0.32,0.77-0.35,0.98l-0.27,2.26h-0.96
		L96.3,85.78z"/>
	<path d="M102.9,89.15c-0.21,0.36-0.49,0.64-0.77,0.82c-0.24,0.14-0.61,0.31-1.16,0.31c-0.51,0-0.95-0.14-1.33-0.55
		c-0.32-0.34-0.56-0.87-0.56-1.55c0-0.75,0.27-1.4,0.72-1.86c0.4-0.41,0.89-0.64,1.51-0.64c0.38,0,0.86,0.08,1.25,0.51
		c0.31,0.34,0.51,0.89,0.51,1.52c0,0.13-0.01,0.31-0.05,0.51h-2.96c0,0.31,0.11,0.66,0.3,0.88c0.13,0.14,0.35,0.28,0.68,0.28
		c0.23,0,0.47-0.07,0.66-0.2c0.17-0.11,0.33-0.31,0.43-0.5L102.9,89.15z M102.14,87.38c-0.03-0.22-0.13-0.47-0.25-0.6
		c-0.14-0.16-0.36-0.24-0.6-0.24c-0.25,0-0.49,0.08-0.7,0.26c-0.17,0.14-0.3,0.37-0.38,0.58H102.14z"/>
	<path d="M110.48,82.6h0.96l-0.88,7.54h-0.96l0.05-0.46c-0.18,0.22-0.36,0.35-0.53,0.43c-0.24,0.12-0.45,0.15-0.71,0.15
		c-0.49,0-0.88-0.13-1.23-0.5c-0.36-0.38-0.59-0.97-0.59-1.63c0-0.7,0.28-1.47,0.76-1.93c0.35-0.34,0.82-0.54,1.42-0.54
		c0.27,0,0.56,0.05,0.8,0.18c0.19,0.09,0.35,0.25,0.49,0.45L110.48,82.6z M108.02,86.92c-0.3,0.31-0.44,0.75-0.44,1.18
		c0,0.39,0.12,0.72,0.31,0.94c0.21,0.24,0.46,0.32,0.75,0.32c0.33,0,0.63-0.1,0.86-0.35c0.27-0.28,0.42-0.75,0.42-1.2
		c0-0.42-0.16-0.72-0.31-0.9c-0.21-0.23-0.46-0.33-0.76-0.33C108.54,86.58,108.26,86.66,108.02,86.92z"/>
	<path d="M115.84,89.15c-0.21,0.36-0.49,0.64-0.77,0.82c-0.24,0.14-0.61,0.31-1.16,0.31c-0.51,0-0.95-0.14-1.33-0.55
		c-0.32-0.34-0.56-0.87-0.56-1.55c0-0.75,0.27-1.4,0.72-1.86c0.4-0.41,0.89-0.64,1.51-0.64c0.38,0,0.86,0.08,1.25,0.51
		c0.31,0.34,0.51,0.89,0.51,1.52c0,0.13-0.01,0.31-0.05,0.51H113c0,0.31,0.11,0.66,0.3,0.88c0.13,0.14,0.35,0.28,0.68,0.28
		c0.23,0,0.47-0.07,0.66-0.2c0.17-0.11,0.33-0.31,0.43-0.5L115.84,89.15z M115.08,87.38c-0.03-0.22-0.13-0.47-0.25-0.6
		c-0.14-0.16-0.36-0.24-0.6-0.24c-0.25,0-0.49,0.08-0.7,0.26c-0.17,0.14-0.3,0.37-0.38,0.58H115.08z"/>
	<path d="M119.11,86.93c-0.05-0.12-0.12-0.21-0.2-0.27c-0.1-0.08-0.19-0.1-0.29-0.1c-0.1,0-0.24,0.02-0.33,0.12
		c-0.04,0.04-0.09,0.12-0.09,0.23c0,0.1,0.04,0.19,0.12,0.25c0.07,0.06,0.15,0.09,0.4,0.23l0.27,0.14c0.33,0.18,0.48,0.33,0.52,0.37
		c0.13,0.15,0.31,0.42,0.31,0.9c0,0.52-0.21,0.85-0.41,1.06c-0.27,0.26-0.64,0.41-1.16,0.41c-0.25,0-0.62-0.04-0.92-0.28
		c-0.04-0.03-0.36-0.29-0.51-0.8l0.83-0.39c0.04,0.17,0.13,0.33,0.23,0.42c0.1,0.09,0.24,0.16,0.4,0.16s0.29-0.05,0.38-0.13
		c0.11-0.09,0.16-0.22,0.16-0.38c0-0.13-0.04-0.26-0.14-0.36c-0.11-0.11-0.26-0.18-0.39-0.25l-0.27-0.15
		c-0.13-0.07-0.34-0.2-0.47-0.33c-0.18-0.18-0.29-0.42-0.29-0.75c0-0.4,0.16-0.73,0.37-0.96c0.3-0.32,0.68-0.39,1.02-0.39
		c0.27,0,0.49,0.05,0.72,0.21c0.2,0.13,0.36,0.35,0.47,0.56L119.11,86.93z"/>
	<path d="M128.94,84.85c-0.62-0.65-1.37-0.77-1.8-0.77c-0.69,0-1.32,0.24-1.78,0.7c-0.48,0.49-0.83,1.3-0.83,2.23
		c0,0.75,0.26,1.27,0.57,1.62c0.37,0.42,0.87,0.65,1.54,0.65c0.87,0,1.51-0.49,1.86-0.8l-0.14,1.25c-0.8,0.46-1.35,0.52-1.81,0.52
		c-0.79,0-1.5-0.18-2.15-0.86c-0.57-0.6-0.87-1.37-0.87-2.39c0-1.27,0.45-2.2,1.08-2.86c0.72-0.73,1.59-1.05,2.59-1.05
		c0.6,0,1.17,0.13,1.87,0.5L128.94,84.85z"/>
	<path d="M133.14,85.78h0.96l-0.51,4.36h-0.96l0.05-0.46c-0.14,0.16-0.34,0.34-0.55,0.43c-0.21,0.09-0.49,0.15-0.76,0.15
		c-0.61,0-0.97-0.27-1.18-0.48c-0.32-0.33-0.57-0.91-0.57-1.57s0.22-1.42,0.72-1.95c0.42-0.44,0.93-0.61,1.51-0.61
		c0.27,0,0.52,0.05,0.76,0.19c0.17,0.09,0.33,0.24,0.47,0.43L133.14,85.78z M131.08,86.92c-0.27,0.27-0.46,0.73-0.46,1.22
		c0,0.38,0.14,0.7,0.32,0.91c0.18,0.2,0.4,0.31,0.7,0.31c0.43,0,0.73-0.2,0.9-0.38c0.27-0.3,0.42-0.77,0.42-1.19
		c0-0.36-0.12-0.7-0.32-0.92c-0.15-0.16-0.38-0.29-0.74-0.29C131.51,86.58,131.24,86.76,131.08,86.92z"/>
	<path d="M136.41,86.71l-0.4,3.42h-0.96l0.4-3.42h-0.41l0.11-0.93h0.41l0.2-1.67c0.04-0.34,0.11-0.85,0.46-1.22
		c0.24-0.25,0.58-0.41,1.05-0.41c0.23,0,0.43,0.04,0.66,0.15l-0.12,0.99c-0.09-0.06-0.27-0.17-0.48-0.17
		c-0.45,0-0.58,0.41-0.63,0.82l-0.18,1.51h1.04l-0.11,0.93H136.41z"/>
	<path d="M141.66,89.15c-0.21,0.36-0.49,0.64-0.77,0.82c-0.24,0.14-0.61,0.31-1.16,0.31c-0.51,0-0.95-0.14-1.33-0.55
		c-0.32-0.34-0.56-0.87-0.56-1.55c0-0.75,0.27-1.4,0.72-1.86c0.4-0.41,0.89-0.64,1.51-0.64c0.38,0,0.87,0.08,1.25,0.51
		c0.31,0.34,0.51,0.89,0.51,1.52c0,0.13-0.01,0.31-0.05,0.51h-2.96c0,0.31,0.11,0.66,0.3,0.88c0.13,0.14,0.35,0.28,0.68,0.28
		c0.23,0,0.47-0.07,0.66-0.2c0.17-0.11,0.33-0.31,0.43-0.5L141.66,89.15z M140.9,87.38c-0.03-0.22-0.13-0.47-0.25-0.6
		c-0.14-0.16-0.36-0.24-0.6-0.24c-0.25,0-0.49,0.08-0.7,0.26c-0.17,0.14-0.3,0.37-0.38,0.58H140.9z M141.83,83.63l-1.7,1.49
		l-0.49-0.35l1.37-1.61L141.83,83.63z"/>
	<path d="M144.94,86.93c-0.05-0.12-0.12-0.21-0.2-0.27c-0.1-0.08-0.19-0.1-0.29-0.1c-0.1,0-0.24,0.02-0.33,0.12
		c-0.04,0.04-0.09,0.12-0.09,0.23c0,0.1,0.04,0.19,0.12,0.25c0.07,0.06,0.15,0.09,0.4,0.23l0.28,0.14c0.33,0.18,0.48,0.33,0.52,0.37
		c0.13,0.15,0.31,0.42,0.31,0.9c0,0.52-0.21,0.85-0.41,1.06c-0.26,0.26-0.64,0.41-1.16,0.41c-0.25,0-0.62-0.04-0.92-0.28
		c-0.04-0.03-0.36-0.29-0.51-0.8l0.83-0.39c0.04,0.17,0.13,0.33,0.23,0.42c0.1,0.09,0.24,0.16,0.4,0.16s0.29-0.05,0.38-0.13
		c0.11-0.09,0.16-0.22,0.16-0.38c0-0.13-0.04-0.26-0.14-0.36c-0.11-0.11-0.26-0.18-0.39-0.25l-0.26-0.15
		c-0.13-0.07-0.34-0.2-0.47-0.33c-0.18-0.18-0.28-0.42-0.28-0.75c0-0.4,0.16-0.73,0.37-0.96c0.3-0.32,0.68-0.39,1.02-0.39
		c0.26,0,0.49,0.05,0.72,0.21c0.2,0.13,0.36,0.35,0.47,0.56L144.94,86.93z"/>
	<path d="M155.75,85.97h2.81l0.31-2.73h1l-0.81,6.9h-1l0.37-3.18h-2.81l-0.37,3.18h-1l0.81-6.9h1L155.75,85.97z"/>
	<path d="M164.61,86.25c0.27,0.29,0.56,0.79,0.56,1.51c0,0.5-0.11,1.22-0.72,1.84c-0.5,0.51-1.03,0.67-1.7,0.67
		c-0.53,0-1.02-0.1-1.47-0.59c-0.3-0.33-0.57-0.82-0.57-1.52c0-0.75,0.29-1.39,0.72-1.82c0.45-0.46,1-0.67,1.71-0.67
		C163.57,85.67,164.14,85.75,164.61,86.25z M163.8,88.95c0.24-0.27,0.39-0.66,0.39-1.13c0-0.24-0.05-0.61-0.32-0.91
		c-0.21-0.23-0.47-0.33-0.79-0.33c-0.44,0-0.75,0.18-0.93,0.36c-0.29,0.28-0.45,0.69-0.45,1.14c0,0.33,0.11,0.66,0.3,0.9
		c0.1,0.11,0.37,0.38,0.88,0.38C163.21,89.36,163.53,89.25,163.8,88.95z M162.31,85.12l-0.61-0.54l1.68-1.43l1.35,1.43l-0.69,0.54
		l-0.77-0.89L162.31,85.12z"/>
	<path d="M167.52,86.71l-0.4,3.42h-0.96l0.4-3.42h-0.4l0.11-0.93h0.4l0.19-1.59h0.96l-0.19,1.59h0.74l-0.11,0.93H167.52z"/>
	<path d="M172.56,89.15c-0.21,0.36-0.49,0.64-0.77,0.82c-0.24,0.14-0.61,0.31-1.16,0.31c-0.51,0-0.95-0.14-1.33-0.55
		c-0.32-0.34-0.56-0.87-0.56-1.55c0-0.75,0.27-1.4,0.72-1.86c0.4-0.41,0.89-0.64,1.51-0.64c0.38,0,0.87,0.08,1.25,0.51
		c0.31,0.34,0.51,0.89,0.51,1.52c0,0.13-0.01,0.31-0.05,0.51h-2.96c0,0.31,0.11,0.66,0.3,0.88c0.13,0.14,0.35,0.28,0.68,0.28
		c0.23,0,0.47-0.07,0.66-0.2c0.17-0.11,0.33-0.31,0.43-0.5L172.56,89.15z M171.8,87.38c-0.03-0.22-0.13-0.47-0.25-0.6
		c-0.14-0.16-0.36-0.24-0.6-0.24c-0.25,0-0.49,0.08-0.7,0.26c-0.17,0.14-0.3,0.37-0.38,0.58H171.8z"/>
	<path d="M175.56,82.6l-0.88,7.54h-0.96l0.88-7.54H175.56z"/>
	<path d="M178.22,86.93c-0.05-0.12-0.12-0.21-0.2-0.27c-0.1-0.08-0.19-0.1-0.29-0.1c-0.1,0-0.24,0.02-0.33,0.12
		c-0.04,0.04-0.09,0.12-0.09,0.23c0,0.1,0.04,0.19,0.12,0.25c0.07,0.06,0.15,0.09,0.4,0.23l0.28,0.14c0.33,0.18,0.48,0.33,0.52,0.37
		c0.13,0.15,0.31,0.42,0.31,0.9c0,0.52-0.21,0.85-0.41,1.06c-0.26,0.26-0.64,0.41-1.16,0.41c-0.25,0-0.62-0.04-0.92-0.28
		c-0.04-0.03-0.36-0.29-0.51-0.8l0.83-0.39c0.04,0.17,0.13,0.33,0.23,0.42c0.1,0.09,0.24,0.16,0.4,0.16s0.29-0.05,0.38-0.13
		c0.11-0.09,0.16-0.22,0.16-0.38c0-0.13-0.04-0.26-0.14-0.36c-0.11-0.11-0.26-0.18-0.39-0.25l-0.27-0.15
		c-0.13-0.07-0.34-0.2-0.47-0.33c-0.18-0.18-0.29-0.42-0.29-0.75c0-0.4,0.16-0.73,0.37-0.96c0.3-0.32,0.68-0.39,1.02-0.39
		c0.26,0,0.49,0.05,0.72,0.21c0.2,0.13,0.36,0.35,0.47,0.56L178.22,86.93z"/>
	<path d="M189.52,83.24c0.51,0,1.18,0.04,1.65,0.42c0.31,0.25,0.63,0.73,0.63,1.46c0,0.7-0.28,1.2-0.57,1.49
		c-0.28,0.28-0.71,0.5-1.12,0.58l1.7,2.95h-1.21l-1.54-2.82h-0.18l-0.33,2.82h-1l0.81-6.9H189.52z M188.98,86.4h0.31
		c0.35,0,0.83-0.07,1.14-0.33c0.23-0.19,0.4-0.52,0.4-0.89c0-0.36-0.16-0.63-0.36-0.78c-0.18-0.12-0.46-0.2-0.89-0.2h-0.34
		L188.98,86.4z"/>
	<path d="M196.67,89.15c-0.21,0.36-0.49,0.64-0.77,0.82c-0.24,0.14-0.61,0.31-1.16,0.31c-0.51,0-0.95-0.14-1.33-0.55
		c-0.32-0.34-0.56-0.87-0.56-1.55c0-0.75,0.27-1.4,0.72-1.86c0.4-0.41,0.89-0.64,1.51-0.64c0.38,0,0.87,0.08,1.25,0.51
		c0.31,0.34,0.51,0.89,0.51,1.52c0,0.13-0.01,0.31-0.05,0.51h-2.96c0,0.31,0.11,0.66,0.3,0.88c0.13,0.14,0.35,0.28,0.68,0.28
		c0.23,0,0.47-0.07,0.66-0.2c0.17-0.11,0.33-0.31,0.43-0.5L196.67,89.15z M195.91,87.38c-0.03-0.22-0.13-0.47-0.25-0.6
		c-0.14-0.16-0.36-0.24-0.6-0.24c-0.25,0-0.49,0.08-0.7,0.26c-0.17,0.14-0.3,0.37-0.38,0.58H195.91z"/>
	<path d="M199.95,86.93c-0.05-0.12-0.12-0.21-0.2-0.27c-0.1-0.08-0.19-0.1-0.29-0.1c-0.1,0-0.24,0.02-0.33,0.12
		c-0.04,0.04-0.09,0.12-0.09,0.23c0,0.1,0.04,0.19,0.12,0.25c0.07,0.06,0.15,0.09,0.4,0.23l0.28,0.14c0.33,0.18,0.48,0.33,0.52,0.37
		c0.13,0.15,0.31,0.42,0.31,0.9c0,0.52-0.21,0.85-0.41,1.06c-0.26,0.26-0.64,0.41-1.16,0.41c-0.25,0-0.62-0.04-0.92-0.28
		c-0.04-0.03-0.36-0.29-0.51-0.8l0.83-0.39c0.04,0.17,0.13,0.33,0.23,0.42c0.1,0.09,0.24,0.16,0.4,0.16s0.29-0.05,0.38-0.13
		c0.11-0.09,0.16-0.22,0.16-0.38c0-0.13-0.04-0.26-0.14-0.36c-0.11-0.11-0.26-0.18-0.39-0.25l-0.27-0.15
		c-0.13-0.07-0.34-0.2-0.47-0.33c-0.18-0.18-0.29-0.42-0.29-0.75c0-0.4,0.16-0.73,0.37-0.96c0.3-0.32,0.68-0.39,1.02-0.39
		c0.26,0,0.49,0.05,0.72,0.21c0.2,0.13,0.36,0.35,0.47,0.56L199.95,86.93z"/>
	<path d="M203,86.71l-0.4,3.42h-0.96l0.4-3.42h-0.4l0.11-0.93h0.4l0.19-1.59h0.96l-0.19,1.59h0.74l-0.11,0.93H203z"/>
	<path d="M207.75,85.78h0.96l-0.51,4.36h-0.96l0.05-0.46c-0.14,0.16-0.34,0.34-0.55,0.43c-0.21,0.09-0.49,0.15-0.76,0.15
		c-0.61,0-0.97-0.27-1.18-0.48c-0.32-0.33-0.57-0.91-0.57-1.57s0.22-1.42,0.72-1.95c0.42-0.44,0.93-0.61,1.51-0.61
		c0.28,0,0.52,0.05,0.76,0.19c0.17,0.09,0.33,0.24,0.47,0.43L207.75,85.78z M205.68,86.92c-0.26,0.27-0.46,0.73-0.46,1.22
		c0,0.38,0.14,0.7,0.33,0.91c0.18,0.2,0.4,0.31,0.7,0.31c0.43,0,0.73-0.2,0.9-0.38c0.27-0.3,0.42-0.77,0.42-1.19
		c0-0.36-0.12-0.7-0.32-0.92c-0.15-0.16-0.38-0.29-0.74-0.29C206.12,86.58,205.85,86.76,205.68,86.92z"/>
	<path d="M211.11,85.78l-0.26,2.27c-0.03,0.23-0.05,0.37-0.05,0.51c0,0.31,0.1,0.5,0.2,0.6c0.13,0.13,0.34,0.21,0.54,0.21
		c0.22,0,0.46-0.09,0.6-0.23c0.22-0.22,0.25-0.56,0.29-0.86l0.29-2.49h0.96l-0.29,2.52c-0.05,0.44-0.13,1.07-0.56,1.5
		c-0.23,0.23-0.64,0.46-1.31,0.46c-0.62,0-1.06-0.2-1.32-0.48c-0.25-0.27-0.38-0.65-0.38-1.05c0-0.15,0.02-0.32,0.05-0.59l0.28-2.37
		H211.11z"/>
	<path d="M215.1,85.78h0.96l-0.05,0.39c0.05-0.06,0.21-0.25,0.44-0.37c0.22-0.11,0.43-0.13,0.63-0.13c0.2,0,0.43,0.03,0.71,0.21
		l-0.47,0.92c-0.15-0.1-0.31-0.16-0.51-0.16c-0.29,0-0.5,0.11-0.64,0.26c-0.25,0.27-0.32,0.77-0.35,0.98l-0.27,2.26h-0.96
		L215.1,85.78z"/>
	<path d="M221.51,85.78h0.96l-0.51,4.36H221l0.05-0.46c-0.14,0.16-0.34,0.34-0.55,0.43c-0.21,0.09-0.49,0.15-0.76,0.15
		c-0.61,0-0.97-0.27-1.18-0.48c-0.32-0.33-0.57-0.91-0.57-1.57s0.22-1.42,0.72-1.95c0.42-0.44,0.93-0.61,1.51-0.61
		c0.28,0,0.52,0.05,0.76,0.19c0.17,0.09,0.33,0.24,0.47,0.43L221.51,85.78z M219.44,86.92c-0.26,0.27-0.46,0.73-0.46,1.22
		c0,0.38,0.14,0.7,0.32,0.91c0.18,0.2,0.4,0.31,0.7,0.31c0.43,0,0.73-0.2,0.9-0.38c0.27-0.3,0.42-0.77,0.42-1.19
		c0-0.36-0.12-0.7-0.32-0.92c-0.15-0.16-0.38-0.29-0.74-0.29C219.88,86.58,219.61,86.76,219.44,86.92z"/>
	<path d="M223.88,85.78h0.96l-0.05,0.39c0.13-0.17,0.25-0.26,0.41-0.34c0.25-0.12,0.46-0.17,0.71-0.17c0.5,0,0.81,0.19,0.98,0.37
		c0.22,0.23,0.37,0.58,0.37,1.03c0,0.17-0.02,0.35-0.09,0.92l-0.26,2.14h-0.96l0.27-2.25c0.05-0.38,0.05-0.54,0.05-0.58
		c0-0.18-0.03-0.4-0.19-0.56c-0.13-0.12-0.31-0.18-0.49-0.18c-0.34,0-0.54,0.16-0.62,0.24c-0.26,0.26-0.34,0.7-0.4,1.22l-0.25,2.1
		h-0.96L223.88,85.78z"/>
	<path d="M229.75,86.71l-0.4,3.42h-0.96l0.4-3.42h-0.4l0.11-0.93h0.4l0.19-1.59h0.96l-0.19,1.59h0.74l-0.11,0.93H229.75z"/>
	<path d="M233.06,86.93c-0.05-0.12-0.12-0.21-0.2-0.27c-0.1-0.08-0.19-0.1-0.29-0.1c-0.1,0-0.24,0.02-0.33,0.12
		c-0.04,0.04-0.09,0.12-0.09,0.23c0,0.1,0.04,0.19,0.12,0.25c0.07,0.06,0.15,0.09,0.4,0.23l0.28,0.14c0.33,0.18,0.48,0.33,0.52,0.37
		c0.13,0.15,0.31,0.42,0.31,0.9c0,0.52-0.21,0.85-0.41,1.06c-0.26,0.26-0.64,0.41-1.16,0.41c-0.25,0-0.62-0.04-0.92-0.28
		c-0.04-0.03-0.36-0.29-0.51-0.8l0.83-0.39c0.04,0.17,0.13,0.33,0.23,0.42c0.1,0.09,0.24,0.16,0.4,0.16s0.29-0.05,0.38-0.13
		c0.11-0.09,0.16-0.22,0.16-0.38c0-0.13-0.04-0.26-0.14-0.36c-0.11-0.11-0.26-0.18-0.39-0.25l-0.27-0.15
		c-0.13-0.07-0.34-0.2-0.47-0.33c-0.18-0.18-0.29-0.42-0.29-0.75c0-0.4,0.16-0.73,0.37-0.96c0.3-0.32,0.68-0.39,1.02-0.39
		c0.26,0,0.49,0.05,0.72,0.21c0.2,0.13,0.36,0.35,0.47,0.56L233.06,86.93z"/>
</g>
<circle class="st0" cx="150.01" cy="87.55" r="1.74"/>
<circle class="st0" cx="183.04" cy="87.55" r="1.74"/>
<g>
</g>
<g>
</g>
<g>
</g>
<g>
</g>
<g>
</g>
<g>
</g>
</svg>
